# xmcd
#
# Track frame offsets:
#	150
#	21513
#	36129
#	55182
#	79211
#	90656
#	105054
#	120348
#	130133
#	141985
#	155492
#	167579
#	181292
#	198424
#	209701
#	223824
#	241089
#	257311
#	274513
#	286251
#
# Disc length: 3961 seconds
# Revision: 0
# Processed by: cddbd v1.5.2PL0 Copyright (c) Steve Scherf et al.
# Submitted via: dBpowerAMP V12.0
#
DISCID=150f7714
DTITLE=Various Artist - Country Greats 100, 1
DYEAR=2018
DGENRE=Americana
TTITLE0=Lynyrd Skynyrd - Sweet Home Alabama
TTITLE1=Glen Campbell - Rhinestone Cowboy
TTITLE2=Bobbie Gentry - Ode to Billy Joe
TTITLE3=The Judds - Love Can Build a Bridge
TTITLE4=Hank Williams, III - Six Pack of Beer
TTITLE5=The Bellamy Brothers - If I Said You Had a Beautiful Body (Would You Hold It Against Me)
TTITLE6=Billy Ray Cyrus - Achy Breaky Heart
TTITLE7=Tom T. Hall - Country Is
TTITLE8=Jerry Lee Lewis - What's Made Milwaukee Famous (Has Made a Loser Out of Me)
TTITLE9=Faron Young - It's Four in the Morning
TTITLE10=Johnny Cash - Goodnight, Irene
TTITLE11=Amy Grant - Big Yellow Taxi
TTITLE12=Billy Currington - Let Me Down Easy
TTITLE13=Patti Page - A Poor Man's Roses (Or a Rich Man's Gold)
TTITLE14=The Soggy Bottom Boys - I am a Man of Constant Sorrow
TTITLE15=Dillard and Clark - Train Leaves Here This Morning
TTITLE16=Rita Coolidge - We're All Alone
TTITLE17=C.W. McCall - Convoy
TTITLE18=Marvin Rainwater - Whole Lotta Woman
TTITLE19=Carl Perkins - Dixie Fried
EXTD=
EXTT0=
EXTT1=
EXTT2=
EXTT3=
EXTT4=
EXTT5=
EXTT6=
EXTT7=
EXTT8=
EXTT9=
EXTT10=
EXTT11=
EXTT12=
EXTT13=
EXTT14=
EXTT15=
EXTT16=
EXTT17=
EXTT18=
EXTT19=
PLAYORDER=
